<svg width="86" height="75" viewBox="0 0 86 75" fill="none" xmlns="http://www.w3.org/2000/svg">
<path d="M78.4414 20.0146H73.1637C68.6749 9.44176 58.7907 1.7583 47.4117 0.290861C36.1353 -1.20041 25.0557 3.10511 17.8072 11.7721C15.6764 14.3203 13.9861 17.0906 12.7485 20.0146H7.55859C3.39062 20.0146 0 23.3781 0 27.5126V37.51C0 41.6445 3.39062 45.008 7.55859 45.008H17.9056L16.8231 41.73C13.6711 32.1817 15.4452 22.426 21.6875 14.9646C27.8215 7.63007 37.1884 4.00071 46.7573 5.24554C56.8769 6.5532 65.6608 13.6525 69.1411 23.3364L69.1623 23.3926C69.7233 24.8717 70.117 26.3923 70.3433 27.9568C71.0986 32.6309 70.6681 37.3683 69.1008 41.6569L69.0897 41.6867C65.1994 52.6436 54.736 60.004 43.0492 60.004C38.854 60.004 35.4414 63.3674 35.4414 67.502C35.4414 71.6366 38.832 75 43 75C47.168 75 50.5586 71.6366 50.5586 67.502V64.1312C60.6189 61.7592 69.0691 54.6849 73.1307 45.0078H78.4414C82.6094 45.0078 86 41.6444 86 37.5098V27.5125C86 23.3779 82.6094 20.0146 78.4414 20.0146Z" fill="#0AA8B0"/>
<ellipse cx="43.0001" cy="32.8079" rx="21.5" ry="21.3277" fill="#0AA8B0"/>
<path d="M22.5 58C21 56.1683 28.3979 45.1779 28.3979 45.1779L32.2747 49.0236L36.1514 52.8692C36.1514 52.8692 24 59.8317 22.5 58Z" fill="#0AA8B0"/>
<rect width="6.02" height="23.887" rx="3.01" transform="matrix(-1 0 0 1 46.0099 21.291)" fill="white"/>
<rect width="5.97175" height="24.08" rx="2.98587" transform="matrix(0 -1 -1 0 55.04 35.7937)" fill="white"/>
</svg>
